# xmcd
#
# Track frame offsets: 
#        150
#        13272
#        25957
#        37912
#        55077
#        69109
#        82523
#        105322
#        118116
#        131487
#        146752
#        167245
#
# Disc length: 2686 seconds
#
# Revision: 0
# Processed by: cddbd v1.5.2PL0 Copyright (c) Steve Scherf et al.
# Submitted via: ExactAudioCopyFreeDBPlugin 1.0
#
DISCID=910a7c0c
DTITLE=C. W. Ayon - Setting Son
DYEAR=2013
DGENRE=Blues
TTITLE0=Last Ride
TTITLE1=Singing Blues
TTITLE2=No Good Anymore
TTITLE3=Strut
TTITLE4=Got Ya Baby
TTITLE5=Setting Son
TTITLE6=Walls Of Our Home
TTITLE7=Maybe Someday
TTITLE8=Looking Back
TTITLE9=Knock The Rust Off
TTITLE10=Night Never Wins
TTITLE11=Dust In My Eyes
EXTD=
EXTT0=
EXTT1=
EXTT2=
EXTT3=
EXTT4=
EXTT5=
EXTT6=
EXTT7=
EXTT8=
EXTT9=
EXTT10=
EXTT11=
PLAYORDER=
